<svg xmlns="http://www.w3.org/2000/svg" width="48px" height="48px">
    <g transform="scale(-1 1) translate(-46, 3)">
        <path
                fill = "#808080"
                d="M14 28C6.2680135 28 0 21.731987 0 14 0 6.2680135 6.2680135 0 14 0c7.731987 0 14
                6.2680135 14 14 0 7.731987 -6.268013 14 -14 14zm0 -6c4.418278 0 8 -3.581722 8 -8 0 -4.418278
                -3.581722 -8 -8 -8 -4.418278 0 -8 3.581722 -8 8 0 4.418278 3.581722 8 8 8z"
        />
        <path
                fill = "#FFFFFF"
                d = "        M32 23l0 -6 -4.3125 0c-0.583336 2.66668 -1.854157 4.958324 -3.8125 6.875 -0.958338 0.958338
        -2.020828 1.760413 -3.1875 2.40625C19.520827 26.927087 18.291673 27.395832 17 27.6875L17 44 11 44 11 25c0
        -0.833338 0.291664 -1.541664 0.875 -2.125C12.458336 22.291664 13.166662 22 14 22c1.125006 0 2.166662 -0.208331
        3.125 -0.625 0.958338 -0.416669 1.80208 -0.98958 2.53125 -1.71875C20.38542 18.92708 20.958331 18.083338 21.375
        17.125 21.791669 16.166662 22 15.125006 22 14 22 13.166662 22.291664 12.458336 22.875 11.875 23.458336
        11.291664 24.166662 11 25 11l7 0 0 -6 14 9 -14 9z"
        />

    </g>
</svg>