<svg xmlns="http://www.w3.org/2000/svg" width="48px" height="48px">
    <g transform="scale(-1 1) translate(-44,2)">
        <path
                fill = "#808080"
                d="M15 39C6.7157287 39 0 32.284271 0 24 0 15.715729 6.7157287 9 15 9c8.284271 0 15
                6.715729 15 15 0 8.284271 -6.715729 15 -15 15zm0 -6c4.970563 0 9 -4.029437 9 -9 0 -4.970563 -4.029437
                -9 -9 -9 -4.970563 0 -9 4.029437 -9 9 0 4.970563 4.029437 9 9 9z"
        />
        <path
                fill = "#FFFFFF"
                d = "        M30.6875 12.5L27.5 15.6875c0.291668 0.416669 0.541666 0.833331 0.75 1.25 0.208334 0.416669
        0.416666 0.854164 0.625 1.3125C29.625004 20.083342 30 21.979157 30 23.9375L30 24c0 2.00001 -0.374996 3.906241
        -1.125 5.71875 -0.750004 1.812509 -1.833326 3.447909 -3.25 4.90625 -2.125011 2.125011 -4.666652 3.479164
        -7.625 4.0625L18 45l-6 0 0 -9c0 -0.833338 0.291664 -1.541664 0.875 -2.125C13.458336 33.291664 14.166662 33
        15 33c1.250006 0 2.416661 -0.239581 3.5 -0.71875 1.083339 -0.479169 2.031246 -1.124996 2.84375 -1.9375C22.156254
        29.531246 22.802081 28.583339 23.28125 27.5 23.760419 26.416661 24 25.250006 24 24l0 -0.0625C24 21.479154
        23.125009 19.375009 21.375 17.625 20.791664 17.041664 20.5 16.333337 20.5 15.5c0 -0.833338 0.291664 -1.541664
        0.875 -2.125L26.5 8.3125 22.25 4.0625 38.5 0.5 34.9375 16.75 30.6875 12.5Z"
        />

    </g>
</svg>