<svg xmlns="http://www.w3.org/2000/svg" width="48px" height="48px">
    <g transform = "scale(-1 1) translate(-46, 3)">
        <path
                fill = "#808080"
                d="M17 34C7.6111592 34 0 26.388841 0 17 0 7.6111592 7.6111592 0 17 0c9.388841 0 17
                7.6111592 17 17 0 9.388841 -7.611159 17 -17 17zm0 -6C23.075132 28 28 23.075132 28 17 28 10.924868
                23.075132 6 17 6 10.924868 6 6 10.924868 6 17c0 6.075132 4.924868 11 11 11z"
        />
        <path
                fill = "#FFFFFF"
                d = "M26.25 38.9375L30.5 34.75 26.6875 30.9375C25.687495 31.645837 24.625006 32.239581 23.5
        32.71875 22.374994 33.197919 21.208339 33.541666 20 33.75L20 44 14 44 14 31c0 -0.833338 0.291664 -1.541664
        0.875 -2.125C15.458336 28.291664 16.166662 28 17 28c1.375007 0 2.708327 -0.249998 4 -0.75 1.291673 -0.500003
        2.437495 -1.229162 3.4375 -2.1875l0.375 -0.375c0.583336 -0.583336 1.281246 -0.864583 2.09375 -0.84375C27.718754
        23.86458 28.416664 24.166664 29 24.75l5.6875 5.75 4.25 -4.25L42.5 42.5 26.25 38.9375Z"
        />

    </g>
</svg>