<svg xmlns="http://www.w3.org/2000/svg" width="48px" height="48px">
    <g transform="scale(-1,1) translate(-48, 2)">
        <path
                fill = "#FFFFFF"
                d="M0 46L0 2 6 2 6 46Z"
        />
        <path
                fill = "#FFFFFF"
                d = " M25.75 18.4375L30 14.25 25 9.25C23.958328 8.2083281 22.760423 7.4062528 21.40625 6.84375 20.052077
        6.2812472 18.625007 6 17.125 6 15.583326 6 14.135423 6.2916637 12.78125 6.875 11.427077 7.4583363
        10.250005 8.249995 9.25 9.25 8.249995 10.250005 7.4583363 11.427077 6.875 12.78125 6.2916637 14.135423
        6 15.583326 6 17.125L6 44 0 44 0 17.125C0 14.833322 0.42707906 12.645844 1.28125 10.5625 2.1354209
        8.4791563 3.3749919 6.6250081 5 5 6.6250081 3.4166587 8.4791563 2.1875044 10.5625 1.3125 12.645844
        0.43749563 14.833322 0 17.125 0 19.416678 0 21.604156 0.43749563 23.6875 1.3125 25.812511 2.1875044
        27.666659 3.4166587 29.25 5l4.9375 5 4.25 -4.25L42 22 25.75 18.4375Z"
        />

    </g>
</svg>